<?xml version="1.0" encoding="UTF-8"?>
<!DOCTYPE svg PUBLIC "-//W3C//DTD SVG 1.1//EN"
    "http://www.w3.org/Graphics/SVG/1.1/DTD/svg11.dtd"><svg stroke="rgb(0,0,0)" xmlns="http://www.w3.org/2000/svg" font-size="1" width="500.0000" stroke-opacity="1" xmlns:xlink="http://www.w3.org/1999/xlink" viewBox="0.0 0.0 500.0 489.0335988857966" height="489.0336" version="1.1"><defs></defs><g fill="rgb(0,0,0)" stroke="rgb(0,0,0)" stroke-linecap="butt" stroke-width="5.0" stroke-miterlimit="10.0" fill-opacity="0.0" stroke-opacity="1.0" stroke-linejoin="miter"><path d="M 78.2578,356.2518 c 0.0000,-14.4069 -11.6791,-26.0859 -26.0859 -26.0859c -14.4069,-0.0000 -26.0859,11.6791 -26.0859 26.0859c -0.0000,14.4069 11.6791,26.0859 26.0859 26.0859c 14.4069,0.0000 26.0859,-11.6791 26.0859 -26.0859Z"/></g><g fill="rgb(255,255,255)" stroke="rgb(0,0,0)" stroke-linecap="butt" stroke-width="1.9779455986164969" stroke-miterlimit="10.0" fill-opacity="1.0" stroke-opacity="1.0" stroke-linejoin="miter"><defs><clipPath id="cubemyClip1"><path d="M 13.0430,304.0799 c 26.0859,-0.0000 52.1719,-0.0000 78.2578 -0.0000c 0.0000,34.7812 0.0000,69.5625 0.0000 104.3437c -26.0859,-0.0000 -52.1719,-0.0000 -78.2578 -0.0000c 0.0000,-34.7812 0.0000,-69.5625 -0.0000 -104.3437Z"/></clipPath></defs><g clip-path="url(#cubemyClip1)"><path d="M 78.2578,356.2518 c 0.0000,-14.4069 -11.6791,-26.0859 -26.0859 -26.0859c -14.4069,-0.0000 -26.0859,11.6791 -26.0859 26.0859c -0.0000,14.4069 11.6791,26.0859 26.0859 26.0859c 14.4069,0.0000 26.0859,-11.6791 26.0859 -26.0859Z"/></g></g><g fill="rgb(44,160,44)" stroke="rgb(0,0,0)" stroke-linecap="butt" stroke-width="1.9779455986164969" stroke-miterlimit="10.0" fill-opacity="1.0" stroke-opacity="1.0" stroke-linejoin="miter"><defs><clipPath id="cubemyClip2"><path d="M 114.7781,382.3377 l -0.0000,-52.1719 h -52.1719 l -0.0000,52.1719 Z"/></clipPath></defs><g clip-path="url(#cubemyClip2)"><path d="M 78.2578,356.2518 c 0.0000,-14.4069 -11.6791,-26.0859 -26.0859 -26.0859c -14.4069,-0.0000 -26.0859,11.6791 -26.0859 26.0859c -0.0000,14.4069 11.6791,26.0859 26.0859 26.0859c 14.4069,0.0000 26.0859,-11.6791 26.0859 -26.0859Z"/></g></g><g fill="rgb(255,255,255)" stroke="rgb(0,0,0)" stroke-linecap="butt" stroke-width="1.9779455986164969" stroke-miterlimit="10.0" fill-opacity="1.0" stroke-opacity="1.0" stroke-linejoin="miter"><defs><clipPath id="cubemyClip3"><path d="M 41.7375,382.3377 l -0.0000,-52.1719 h -52.1719 l -0.0000,52.1719 Z"/></clipPath></defs><g clip-path="url(#cubemyClip3)"><path d="M 78.2578,356.2518 c 0.0000,-14.4069 -11.6791,-26.0859 -26.0859 -26.0859c -14.4069,-0.0000 -26.0859,11.6791 -26.0859 26.0859c -0.0000,14.4069 11.6791,26.0859 26.0859 26.0859c 14.4069,0.0000 26.0859,-11.6791 26.0859 -26.0859Z"/></g></g><g fill="rgb(0,0,0)" stroke="rgb(0,0,0)" stroke-linecap="butt" stroke-width="5.0" stroke-miterlimit="10.0" fill-opacity="0.0" stroke-opacity="1.0" stroke-linejoin="miter"><path d="M 326.3498,436.8617 c 0.0000,-14.4069 -11.6791,-26.0859 -26.0859 -26.0859c -14.4069,-0.0000 -26.0859,11.6791 -26.0859 26.0859c -0.0000,14.4069 11.6791,26.0859 26.0859 26.0859c 14.4069,0.0000 26.0859,-11.6791 26.0859 -26.0859Z"/></g><g fill="rgb(255,255,255)" stroke="rgb(0,0,0)" stroke-linecap="butt" stroke-width="1.9779455986164969" stroke-miterlimit="10.0" fill-opacity="1.0" stroke-opacity="1.0" stroke-linejoin="miter"><defs><clipPath id="cubemyClip4"><path d="M 261.1349,384.6899 c 26.0859,-0.0000 52.1719,-0.0000 78.2578 -0.0000c 0.0000,34.7812 0.0000,69.5625 0.0000 104.3437c -26.0859,-0.0000 -52.1719,-0.0000 -78.2578 -0.0000c 0.0000,-34.7812 0.0000,-69.5625 -0.0000 -104.3437Z"/></clipPath></defs><g clip-path="url(#cubemyClip4)"><path d="M 326.3498,436.8617 c 0.0000,-14.4069 -11.6791,-26.0859 -26.0859 -26.0859c -14.4069,-0.0000 -26.0859,11.6791 -26.0859 26.0859c -0.0000,14.4069 11.6791,26.0859 26.0859 26.0859c 14.4069,0.0000 26.0859,-11.6791 26.0859 -26.0859Z"/></g></g><g fill="rgb(44,160,44)" stroke="rgb(0,0,0)" stroke-linecap="butt" stroke-width="1.9779455986164969" stroke-miterlimit="10.0" fill-opacity="1.0" stroke-opacity="1.0" stroke-linejoin="miter"><defs><clipPath id="cubemyClip5"><path d="M 362.8701,462.9477 l -0.0000,-52.1719 h -52.1719 l -0.0000,52.1719 Z"/></clipPath></defs><g clip-path="url(#cubemyClip5)"><path d="M 326.3498,436.8617 c 0.0000,-14.4069 -11.6791,-26.0859 -26.0859 -26.0859c -14.4069,-0.0000 -26.0859,11.6791 -26.0859 26.0859c -0.0000,14.4069 11.6791,26.0859 26.0859 26.0859c 14.4069,0.0000 26.0859,-11.6791 26.0859 -26.0859Z"/></g></g><g fill="rgb(214,39,40)" stroke="rgb(0,0,0)" stroke-linecap="butt" stroke-width="1.9779455986164969" stroke-miterlimit="10.0" fill-opacity="1.0" stroke-opacity="1.0" stroke-linejoin="miter"><defs><clipPath id="cubemyClip6"><path d="M 289.8294,462.9477 l -0.0000,-52.1719 h -52.1719 l -0.0000,52.1719 Z"/></clipPath></defs><g clip-path="url(#cubemyClip6)"><path d="M 326.3498,436.8617 c 0.0000,-14.4069 -11.6791,-26.0859 -26.0859 -26.0859c -14.4069,-0.0000 -26.0859,11.6791 -26.0859 26.0859c -0.0000,14.4069 11.6791,26.0859 26.0859 26.0859c 14.4069,0.0000 26.0859,-11.6791 26.0859 -26.0859Z"/></g></g><g fill="rgb(0,0,0)" stroke="rgb(0,0,0)" stroke-linecap="butt" stroke-width="5.0" stroke-miterlimit="10.0" fill-opacity="0.0" stroke-opacity="1.0" stroke-linejoin="miter"><path d="M 473.9141,289.2974 c 0.0000,-14.4069 -11.6791,-26.0859 -26.0859 -26.0859c -14.4069,-0.0000 -26.0859,11.6791 -26.0859 26.0859c -0.0000,14.4069 11.6791,26.0859 26.0859 26.0859c 14.4069,0.0000 26.0859,-11.6791 26.0859 -26.0859Z"/></g><g fill="rgb(255,255,255)" stroke="rgb(0,0,0)" stroke-linecap="butt" stroke-width="1.9779455986164969" stroke-miterlimit="10.0" fill-opacity="1.0" stroke-opacity="1.0" stroke-linejoin="miter"><defs><clipPath id="cubemyClip7"><path d="M 408.6992,237.1256 c 26.0859,-0.0000 52.1719,-0.0000 78.2578 -0.0000c 0.0000,34.7812 0.0000,69.5625 0.0000 104.3437c -26.0859,-0.0000 -52.1719,-0.0000 -78.2578 -0.0000c 0.0000,-34.7812 0.0000,-69.5625 -0.0000 -104.3437Z"/></clipPath></defs><g clip-path="url(#cubemyClip7)"><path d="M 473.9141,289.2974 c 0.0000,-14.4069 -11.6791,-26.0859 -26.0859 -26.0859c -14.4069,-0.0000 -26.0859,11.6791 -26.0859 26.0859c -0.0000,14.4069 11.6791,26.0859 26.0859 26.0859c 14.4069,0.0000 26.0859,-11.6791 26.0859 -26.0859Z"/></g></g><g fill="rgb(255,255,255)" stroke="rgb(0,0,0)" stroke-linecap="butt" stroke-width="1.9779455986164969" stroke-miterlimit="10.0" fill-opacity="1.0" stroke-opacity="1.0" stroke-linejoin="miter"><defs><clipPath id="cubemyClip8"><path d="M 510.4344,315.3834 l -0.0000,-52.1719 h -52.1719 l -0.0000,52.1719 Z"/></clipPath></defs><g clip-path="url(#cubemyClip8)"><path d="M 473.9141,289.2974 c 0.0000,-14.4069 -11.6791,-26.0859 -26.0859 -26.0859c -14.4069,-0.0000 -26.0859,11.6791 -26.0859 26.0859c -0.0000,14.4069 11.6791,26.0859 26.0859 26.0859c 14.4069,0.0000 26.0859,-11.6791 26.0859 -26.0859Z"/></g></g><g fill="rgb(214,39,40)" stroke="rgb(0,0,0)" stroke-linecap="butt" stroke-width="1.9779455986164969" stroke-miterlimit="10.0" fill-opacity="1.0" stroke-opacity="1.0" stroke-linejoin="miter"><defs><clipPath id="cubemyClip9"><path d="M 437.3938,315.3834 l -0.0000,-52.1719 h -52.1719 l -0.0000,52.1719 Z"/></clipPath></defs><g clip-path="url(#cubemyClip9)"><path d="M 473.9141,289.2974 c 0.0000,-14.4069 -11.6791,-26.0859 -26.0859 -26.0859c -14.4069,-0.0000 -26.0859,11.6791 -26.0859 26.0859c -0.0000,14.4069 11.6791,26.0859 26.0859 26.0859c 14.4069,0.0000 26.0859,-11.6791 26.0859 -26.0859Z"/></g></g><g fill="rgb(0,0,0)" stroke="rgb(0,0,0)" stroke-linecap="butt" stroke-width="5.0" stroke-miterlimit="10.0" fill-opacity="0.0" stroke-opacity="1.0" stroke-linejoin="miter"><path d="M 225.8221,208.6875 c 0.0000,-14.4069 -11.6791,-26.0859 -26.0859 -26.0859c -14.4069,-0.0000 -26.0859,11.6791 -26.0859 26.0859c -0.0000,14.4069 11.6791,26.0859 26.0859 26.0859c 14.4069,0.0000 26.0859,-11.6791 26.0859 -26.0859Z"/></g><g fill="rgb(255,255,255)" stroke="rgb(0,0,0)" stroke-linecap="butt" stroke-width="1.9779455986164969" stroke-miterlimit="10.0" fill-opacity="1.0" stroke-opacity="1.0" stroke-linejoin="miter"><defs><clipPath id="cubemyClip10"><path d="M 160.6073,156.5156 c 26.0859,-0.0000 52.1719,-0.0000 78.2578 -0.0000c 0.0000,34.7812 0.0000,69.5625 0.0000 104.3437c -26.0859,-0.0000 -52.1719,-0.0000 -78.2578 -0.0000c 0.0000,-34.7812 0.0000,-69.5625 -0.0000 -104.3437Z"/></clipPath></defs><g clip-path="url(#cubemyClip10)"><path d="M 225.8221,208.6875 c 0.0000,-14.4069 -11.6791,-26.0859 -26.0859 -26.0859c -14.4069,-0.0000 -26.0859,11.6791 -26.0859 26.0859c -0.0000,14.4069 11.6791,26.0859 26.0859 26.0859c 14.4069,0.0000 26.0859,-11.6791 26.0859 -26.0859Z"/></g></g><g fill="rgb(255,255,255)" stroke="rgb(0,0,0)" stroke-linecap="butt" stroke-width="1.9779455986164969" stroke-miterlimit="10.0" fill-opacity="1.0" stroke-opacity="1.0" stroke-linejoin="miter"><defs><clipPath id="cubemyClip11"><path d="M 262.3424,234.7734 l -0.0000,-52.1719 h -52.1719 l -0.0000,52.1719 Z"/></clipPath></defs><g clip-path="url(#cubemyClip11)"><path d="M 225.8221,208.6875 c 0.0000,-14.4069 -11.6791,-26.0859 -26.0859 -26.0859c -14.4069,-0.0000 -26.0859,11.6791 -26.0859 26.0859c -0.0000,14.4069 11.6791,26.0859 26.0859 26.0859c 14.4069,0.0000 26.0859,-11.6791 26.0859 -26.0859Z"/></g></g><g fill="rgb(255,255,255)" stroke="rgb(0,0,0)" stroke-linecap="butt" stroke-width="1.9779455986164969" stroke-miterlimit="10.0" fill-opacity="1.0" stroke-opacity="1.0" stroke-linejoin="miter"><defs><clipPath id="cubemyClip12"><path d="M 189.3018,234.7734 l -0.0000,-52.1719 h -52.1719 l -0.0000,52.1719 Z"/></clipPath></defs><g clip-path="url(#cubemyClip12)"><path d="M 225.8221,208.6875 c 0.0000,-14.4069 -11.6791,-26.0859 -26.0859 -26.0859c -14.4069,-0.0000 -26.0859,11.6791 -26.0859 26.0859c -0.0000,14.4069 11.6791,26.0859 26.0859 26.0859c 14.4069,0.0000 26.0859,-11.6791 26.0859 -26.0859Z"/></g></g><g fill="rgb(0,0,0)" stroke="rgb(0,0,0)" stroke-linecap="butt" stroke-width="1.9779455986164969" stroke-miterlimit="10.0" fill-opacity="0.0" stroke-opacity="1.0" stroke-linejoin="miter"><path d="M 76.9878,364.3149 l 182.0002,59.1355 "/></g><g fill="rgb(0,0,0)" stroke="rgb(0,0,0)" stroke-linecap="butt" stroke-width="0.0" stroke-miterlimit="10.0" fill-opacity="1.0" stroke-opacity="1.0" stroke-linejoin="miter"></g><g fill="rgb(0,0,0)" stroke="rgb(0,0,0)" stroke-linecap="butt" stroke-width="0.0" stroke-miterlimit="10.0" fill-opacity="1.0" stroke-opacity="1.0" stroke-linejoin="miter"></g><g fill="rgb(0,0,0)" stroke="rgb(0,0,0)" stroke-linecap="butt" stroke-width="0.0" stroke-miterlimit="10.0" fill-opacity="1.0" stroke-opacity="1.0" stroke-linejoin="miter"><path d="M 275.4479,428.7986 l -17.2218,-12.5124 l 1.2563,7.3249 l -5.3218,5.1875 Z"/></g><g fill="rgb(0,0,0)" stroke="rgb(0,0,0)" stroke-linecap="butt" stroke-width="0.0" stroke-miterlimit="10.0" fill-opacity="1.0" stroke-opacity="1.0" stroke-linejoin="miter"><path d="M 259.4825,423.6111 l -0.4945,-0.1607 l 0.3056,-0.9406 l 0.1889,1.1012 l -0.4945,-0.1607 l -0.3056,0.9406 Z"/></g><g fill="rgb(0,0,0)" stroke="rgb(0,0,0)" stroke-linecap="butt" stroke-width="1.9779455986164969" stroke-miterlimit="10.0" fill-opacity="0.0" stroke-opacity="1.0" stroke-linejoin="miter"><path d="M 429.3826,307.7430 l -98.4353,98.4353 "/></g><g fill="rgb(0,0,0)" stroke="rgb(0,0,0)" stroke-linecap="butt" stroke-width="0.0" stroke-miterlimit="10.0" fill-opacity="1.0" stroke-opacity="1.0" stroke-linejoin="miter"></g><g fill="rgb(0,0,0)" stroke="rgb(0,0,0)" stroke-linecap="butt" stroke-width="0.0" stroke-miterlimit="10.0" fill-opacity="1.0" stroke-opacity="1.0" stroke-linejoin="miter"></g><g fill="rgb(0,0,0)" stroke="rgb(0,0,0)" stroke-linecap="butt" stroke-width="0.0" stroke-miterlimit="10.0" fill-opacity="1.0" stroke-opacity="1.0" stroke-linejoin="miter"><path d="M 318.7094,418.4162 l 18.9671,-9.6642 l -7.0969,-2.2060 l -2.2060,-7.0969 Z"/></g><g fill="rgb(0,0,0)" stroke="rgb(0,0,0)" stroke-linecap="butt" stroke-width="0.0" stroke-miterlimit="10.0" fill-opacity="1.0" stroke-opacity="1.0" stroke-linejoin="miter"><path d="M 330.5796,406.5459 l 0.3676,-0.3676 l 0.6993,0.6993 l -1.0670,-0.3317 l 0.3676,-0.3676 l -0.6993,-0.6993 Z"/></g><g fill="rgb(0,0,0)" stroke="rgb(0,0,0)" stroke-linecap="butt" stroke-width="1.9779455986164969" stroke-miterlimit="10.0" fill-opacity="0.0" stroke-opacity="1.0" stroke-linejoin="miter"><path d="M 181.2906,227.1330 l -98.4353,98.4353 "/></g><g fill="rgb(0,0,0)" stroke="rgb(0,0,0)" stroke-linecap="butt" stroke-width="0.0" stroke-miterlimit="10.0" fill-opacity="1.0" stroke-opacity="1.0" stroke-linejoin="miter"></g><g fill="rgb(0,0,0)" stroke="rgb(0,0,0)" stroke-linecap="butt" stroke-width="0.0" stroke-miterlimit="10.0" fill-opacity="1.0" stroke-opacity="1.0" stroke-linejoin="miter"></g><g fill="rgb(0,0,0)" stroke="rgb(0,0,0)" stroke-linecap="butt" stroke-width="0.0" stroke-miterlimit="10.0" fill-opacity="1.0" stroke-opacity="1.0" stroke-linejoin="miter"><path d="M 70.6174,337.8062 l 18.9671,-9.6642 l -7.0969,-2.2060 l -2.2060,-7.0969 Z"/></g><g fill="rgb(0,0,0)" stroke="rgb(0,0,0)" stroke-linecap="butt" stroke-width="0.0" stroke-miterlimit="10.0" fill-opacity="1.0" stroke-opacity="1.0" stroke-linejoin="miter"><path d="M 82.4877,325.9360 l 0.3676,-0.3676 l 0.6993,0.6993 l -1.0670,-0.3317 l 0.3676,-0.3676 l -0.6993,-0.6993 Z"/></g><g fill="rgb(0,0,0)" stroke="rgb(0,0,0)" stroke-linecap="butt" stroke-width="1.9779455986164969" stroke-miterlimit="10.0" fill-opacity="0.0" stroke-opacity="1.0" stroke-linejoin="miter"><path d="M 224.5521,216.7506 l 182.0002,59.1355 "/></g><g fill="rgb(0,0,0)" stroke="rgb(0,0,0)" stroke-linecap="butt" stroke-width="0.0" stroke-miterlimit="10.0" fill-opacity="1.0" stroke-opacity="1.0" stroke-linejoin="miter"></g><g fill="rgb(0,0,0)" stroke="rgb(0,0,0)" stroke-linecap="butt" stroke-width="0.0" stroke-miterlimit="10.0" fill-opacity="1.0" stroke-opacity="1.0" stroke-linejoin="miter"></g><g fill="rgb(0,0,0)" stroke="rgb(0,0,0)" stroke-linecap="butt" stroke-width="0.0" stroke-miterlimit="10.0" fill-opacity="1.0" stroke-opacity="1.0" stroke-linejoin="miter"><path d="M 423.0122,281.2342 l -17.2218,-12.5124 l 1.2563,7.3249 l -5.3218,5.1875 Z"/></g><g fill="rgb(0,0,0)" stroke="rgb(0,0,0)" stroke-linecap="butt" stroke-width="0.0" stroke-miterlimit="10.0" fill-opacity="1.0" stroke-opacity="1.0" stroke-linejoin="miter"><path d="M 407.0468,276.0468 l -0.4945,-0.1607 l 0.3056,-0.9406 l 0.1889,1.1012 l -0.4945,-0.1607 l -0.3056,0.9406 Z"/></g><g fill="rgb(0,0,0)" stroke="rgb(0,0,0)" stroke-linecap="butt" stroke-width="5.0" stroke-miterlimit="10.0" fill-opacity="0.0" stroke-opacity="1.0" stroke-linejoin="miter"><path d="M 78.2578,199.7362 c 0.0000,-14.4069 -11.6791,-26.0859 -26.0859 -26.0859c -14.4069,-0.0000 -26.0859,11.6791 -26.0859 26.0859c -0.0000,14.4069 11.6791,26.0859 26.0859 26.0859c 14.4069,0.0000 26.0859,-11.6791 26.0859 -26.0859Z"/></g><g fill="rgb(31,119,180)" stroke="rgb(0,0,0)" stroke-linecap="butt" stroke-width="1.9779455986164969" stroke-miterlimit="10.0" fill-opacity="1.0" stroke-opacity="1.0" stroke-linejoin="miter"><defs><clipPath id="cubemyClip13"><path d="M 13.0430,147.5643 c 26.0859,-0.0000 52.1719,-0.0000 78.2578 -0.0000c 0.0000,34.7812 0.0000,69.5625 0.0000 104.3437c -26.0859,-0.0000 -52.1719,-0.0000 -78.2578 -0.0000c 0.0000,-34.7812 0.0000,-69.5625 -0.0000 -104.3437Z"/></clipPath></defs><g clip-path="url(#cubemyClip13)"><path d="M 78.2578,199.7362 c 0.0000,-14.4069 -11.6791,-26.0859 -26.0859 -26.0859c -14.4069,-0.0000 -26.0859,11.6791 -26.0859 26.0859c -0.0000,14.4069 11.6791,26.0859 26.0859 26.0859c 14.4069,0.0000 26.0859,-11.6791 26.0859 -26.0859Z"/></g></g><g fill="rgb(44,160,44)" stroke="rgb(0,0,0)" stroke-linecap="butt" stroke-width="1.9779455986164969" stroke-miterlimit="10.0" fill-opacity="1.0" stroke-opacity="1.0" stroke-linejoin="miter"><defs><clipPath id="cubemyClip14"><path d="M 114.7781,225.8221 l -0.0000,-52.1719 h -52.1719 l -0.0000,52.1719 Z"/></clipPath></defs><g clip-path="url(#cubemyClip14)"><path d="M 78.2578,199.7362 c 0.0000,-14.4069 -11.6791,-26.0859 -26.0859 -26.0859c -14.4069,-0.0000 -26.0859,11.6791 -26.0859 26.0859c -0.0000,14.4069 11.6791,26.0859 26.0859 26.0859c 14.4069,0.0000 26.0859,-11.6791 26.0859 -26.0859Z"/></g></g><g fill="rgb(255,255,255)" stroke="rgb(0,0,0)" stroke-linecap="butt" stroke-width="1.9779455986164969" stroke-miterlimit="10.0" fill-opacity="1.0" stroke-opacity="1.0" stroke-linejoin="miter"><defs><clipPath id="cubemyClip15"><path d="M 41.7375,225.8221 l -0.0000,-52.1719 h -52.1719 l -0.0000,52.1719 Z"/></clipPath></defs><g clip-path="url(#cubemyClip15)"><path d="M 78.2578,199.7362 c 0.0000,-14.4069 -11.6791,-26.0859 -26.0859 -26.0859c -14.4069,-0.0000 -26.0859,11.6791 -26.0859 26.0859c -0.0000,14.4069 11.6791,26.0859 26.0859 26.0859c 14.4069,0.0000 26.0859,-11.6791 26.0859 -26.0859Z"/></g></g><g fill="rgb(0,0,0)" stroke="rgb(0,0,0)" stroke-linecap="butt" stroke-width="5.0" stroke-miterlimit="10.0" fill-opacity="0.0" stroke-opacity="1.0" stroke-linejoin="miter"><path d="M 326.3498,280.3461 c 0.0000,-14.4069 -11.6791,-26.0859 -26.0859 -26.0859c -14.4069,-0.0000 -26.0859,11.6791 -26.0859 26.0859c -0.0000,14.4069 11.6791,26.0859 26.0859 26.0859c 14.4069,0.0000 26.0859,-11.6791 26.0859 -26.0859Z"/></g><g fill="rgb(31,119,180)" stroke="rgb(0,0,0)" stroke-linecap="butt" stroke-width="1.9779455986164969" stroke-miterlimit="10.0" fill-opacity="1.0" stroke-opacity="1.0" stroke-linejoin="miter"><defs><clipPath id="cubemyClip16"><path d="M 261.1349,228.1743 c 26.0859,-0.0000 52.1719,-0.0000 78.2578 -0.0000c 0.0000,34.7812 0.0000,69.5625 0.0000 104.3437c -26.0859,-0.0000 -52.1719,-0.0000 -78.2578 -0.0000c 0.0000,-34.7812 0.0000,-69.5625 -0.0000 -104.3437Z"/></clipPath></defs><g clip-path="url(#cubemyClip16)"><path d="M 326.3498,280.3461 c 0.0000,-14.4069 -11.6791,-26.0859 -26.0859 -26.0859c -14.4069,-0.0000 -26.0859,11.6791 -26.0859 26.0859c -0.0000,14.4069 11.6791,26.0859 26.0859 26.0859c 14.4069,0.0000 26.0859,-11.6791 26.0859 -26.0859Z"/></g></g><g fill="rgb(44,160,44)" stroke="rgb(0,0,0)" stroke-linecap="butt" stroke-width="1.9779455986164969" stroke-miterlimit="10.0" fill-opacity="1.0" stroke-opacity="1.0" stroke-linejoin="miter"><defs><clipPath id="cubemyClip17"><path d="M 362.8701,306.4321 l -0.0000,-52.1719 h -52.1719 l -0.0000,52.1719 Z"/></clipPath></defs><g clip-path="url(#cubemyClip17)"><path d="M 326.3498,280.3461 c 0.0000,-14.4069 -11.6791,-26.0859 -26.0859 -26.0859c -14.4069,-0.0000 -26.0859,11.6791 -26.0859 26.0859c -0.0000,14.4069 11.6791,26.0859 26.0859 26.0859c 14.4069,0.0000 26.0859,-11.6791 26.0859 -26.0859Z"/></g></g><g fill="rgb(214,39,40)" stroke="rgb(0,0,0)" stroke-linecap="butt" stroke-width="1.9779455986164969" stroke-miterlimit="10.0" fill-opacity="1.0" stroke-opacity="1.0" stroke-linejoin="miter"><defs><clipPath id="cubemyClip18"><path d="M 289.8294,306.4321 l -0.0000,-52.1719 h -52.1719 l -0.0000,52.1719 Z"/></clipPath></defs><g clip-path="url(#cubemyClip18)"><path d="M 326.3498,280.3461 c 0.0000,-14.4069 -11.6791,-26.0859 -26.0859 -26.0859c -14.4069,-0.0000 -26.0859,11.6791 -26.0859 26.0859c -0.0000,14.4069 11.6791,26.0859 26.0859 26.0859c 14.4069,0.0000 26.0859,-11.6791 26.0859 -26.0859Z"/></g></g><g fill="rgb(0,0,0)" stroke="rgb(0,0,0)" stroke-linecap="butt" stroke-width="5.0" stroke-miterlimit="10.0" fill-opacity="0.0" stroke-opacity="1.0" stroke-linejoin="miter"><path d="M 473.9141,132.7818 c 0.0000,-14.4069 -11.6791,-26.0859 -26.0859 -26.0859c -14.4069,-0.0000 -26.0859,11.6791 -26.0859 26.0859c -0.0000,14.4069 11.6791,26.0859 26.0859 26.0859c 14.4069,0.0000 26.0859,-11.6791 26.0859 -26.0859Z"/></g><g fill="rgb(31,119,180)" stroke="rgb(0,0,0)" stroke-linecap="butt" stroke-width="1.9779455986164969" stroke-miterlimit="10.0" fill-opacity="1.0" stroke-opacity="1.0" stroke-linejoin="miter"><defs><clipPath id="cubemyClip19"><path d="M 408.6992,80.6100 c 26.0859,-0.0000 52.1719,-0.0000 78.2578 -0.0000c 0.0000,34.7812 0.0000,69.5625 0.0000 104.3437c -26.0859,-0.0000 -52.1719,-0.0000 -78.2578 -0.0000c 0.0000,-34.7812 0.0000,-69.5625 -0.0000 -104.3437Z"/></clipPath></defs><g clip-path="url(#cubemyClip19)"><path d="M 473.9141,132.7818 c 0.0000,-14.4069 -11.6791,-26.0859 -26.0859 -26.0859c -14.4069,-0.0000 -26.0859,11.6791 -26.0859 26.0859c -0.0000,14.4069 11.6791,26.0859 26.0859 26.0859c 14.4069,0.0000 26.0859,-11.6791 26.0859 -26.0859Z"/></g></g><g fill="rgb(255,255,255)" stroke="rgb(0,0,0)" stroke-linecap="butt" stroke-width="1.9779455986164969" stroke-miterlimit="10.0" fill-opacity="1.0" stroke-opacity="1.0" stroke-linejoin="miter"><defs><clipPath id="cubemyClip20"><path d="M 510.4344,158.8678 l -0.0000,-52.1719 h -52.1719 l -0.0000,52.1719 Z"/></clipPath></defs><g clip-path="url(#cubemyClip20)"><path d="M 473.9141,132.7818 c 0.0000,-14.4069 -11.6791,-26.0859 -26.0859 -26.0859c -14.4069,-0.0000 -26.0859,11.6791 -26.0859 26.0859c -0.0000,14.4069 11.6791,26.0859 26.0859 26.0859c 14.4069,0.0000 26.0859,-11.6791 26.0859 -26.0859Z"/></g></g><g fill="rgb(214,39,40)" stroke="rgb(0,0,0)" stroke-linecap="butt" stroke-width="1.9779455986164969" stroke-miterlimit="10.0" fill-opacity="1.0" stroke-opacity="1.0" stroke-linejoin="miter"><defs><clipPath id="cubemyClip21"><path d="M 437.3938,158.8678 l -0.0000,-52.1719 h -52.1719 l -0.0000,52.1719 Z"/></clipPath></defs><g clip-path="url(#cubemyClip21)"><path d="M 473.9141,132.7818 c 0.0000,-14.4069 -11.6791,-26.0859 -26.0859 -26.0859c -14.4069,-0.0000 -26.0859,11.6791 -26.0859 26.0859c -0.0000,14.4069 11.6791,26.0859 26.0859 26.0859c 14.4069,0.0000 26.0859,-11.6791 26.0859 -26.0859Z"/></g></g><g fill="rgb(0,0,0)" stroke="rgb(0,0,0)" stroke-linecap="butt" stroke-width="5.0" stroke-miterlimit="10.0" fill-opacity="0.0" stroke-opacity="1.0" stroke-linejoin="miter"><path d="M 225.8221,52.1719 c 0.0000,-14.4069 -11.6791,-26.0859 -26.0859 -26.0859c -14.4069,-0.0000 -26.0859,11.6791 -26.0859 26.0859c -0.0000,14.4069 11.6791,26.0859 26.0859 26.0859c 14.4069,0.0000 26.0859,-11.6791 26.0859 -26.0859Z"/></g><g fill="rgb(31,119,180)" stroke="rgb(0,0,0)" stroke-linecap="butt" stroke-width="1.9779455986164969" stroke-miterlimit="10.0" fill-opacity="1.0" stroke-opacity="1.0" stroke-linejoin="miter"><defs><clipPath id="cubemyClip22"><path d="M 160.6073,0.0000 c 26.0859,-0.0000 52.1719,-0.0000 78.2578 -0.0000c 0.0000,34.7812 0.0000,69.5625 0.0000 104.3437c -26.0859,-0.0000 -52.1719,-0.0000 -78.2578 -0.0000c 0.0000,-34.7812 0.0000,-69.5625 -0.0000 -104.3437Z"/></clipPath></defs><g clip-path="url(#cubemyClip22)"><path d="M 225.8221,52.1719 c 0.0000,-14.4069 -11.6791,-26.0859 -26.0859 -26.0859c -14.4069,-0.0000 -26.0859,11.6791 -26.0859 26.0859c -0.0000,14.4069 11.6791,26.0859 26.0859 26.0859c 14.4069,0.0000 26.0859,-11.6791 26.0859 -26.0859Z"/></g></g><g fill="rgb(255,255,255)" stroke="rgb(0,0,0)" stroke-linecap="butt" stroke-width="1.9779455986164969" stroke-miterlimit="10.0" fill-opacity="1.0" stroke-opacity="1.0" stroke-linejoin="miter"><defs><clipPath id="cubemyClip23"><path d="M 262.3424,78.2578 l -0.0000,-52.1719 h -52.1719 l -0.0000,52.1719 Z"/></clipPath></defs><g clip-path="url(#cubemyClip23)"><path d="M 225.8221,52.1719 c 0.0000,-14.4069 -11.6791,-26.0859 -26.0859 -26.0859c -14.4069,-0.0000 -26.0859,11.6791 -26.0859 26.0859c -0.0000,14.4069 11.6791,26.0859 26.0859 26.0859c 14.4069,0.0000 26.0859,-11.6791 26.0859 -26.0859Z"/></g></g><g fill="rgb(255,255,255)" stroke="rgb(0,0,0)" stroke-linecap="butt" stroke-width="1.9779455986164969" stroke-miterlimit="10.0" fill-opacity="1.0" stroke-opacity="1.0" stroke-linejoin="miter"><defs><clipPath id="cubemyClip24"><path d="M 189.3018,78.2578 l -0.0000,-52.1719 h -52.1719 l -0.0000,52.1719 Z"/></clipPath></defs><g clip-path="url(#cubemyClip24)"><path d="M 225.8221,52.1719 c 0.0000,-14.4069 -11.6791,-26.0859 -26.0859 -26.0859c -14.4069,-0.0000 -26.0859,11.6791 -26.0859 26.0859c -0.0000,14.4069 11.6791,26.0859 26.0859 26.0859c 14.4069,0.0000 26.0859,-11.6791 26.0859 -26.0859Z"/></g></g><g fill="rgb(0,0,0)" stroke="rgb(0,0,0)" stroke-linecap="butt" stroke-width="1.9779455986164969" stroke-miterlimit="10.0" fill-opacity="0.0" stroke-opacity="1.0" stroke-linejoin="miter"><path d="M 76.9878,207.7994 l 182.0002,59.1355 "/></g><g fill="rgb(0,0,0)" stroke="rgb(0,0,0)" stroke-linecap="butt" stroke-width="0.0" stroke-miterlimit="10.0" fill-opacity="1.0" stroke-opacity="1.0" stroke-linejoin="miter"></g><g fill="rgb(0,0,0)" stroke="rgb(0,0,0)" stroke-linecap="butt" stroke-width="0.0" stroke-miterlimit="10.0" fill-opacity="1.0" stroke-opacity="1.0" stroke-linejoin="miter"></g><g fill="rgb(0,0,0)" stroke="rgb(0,0,0)" stroke-linecap="butt" stroke-width="0.0" stroke-miterlimit="10.0" fill-opacity="1.0" stroke-opacity="1.0" stroke-linejoin="miter"><path d="M 275.4479,272.2830 l -17.2218,-12.5124 l 1.2563,7.3249 l -5.3218,5.1875 Z"/></g><g fill="rgb(0,0,0)" stroke="rgb(0,0,0)" stroke-linecap="butt" stroke-width="0.0" stroke-miterlimit="10.0" fill-opacity="1.0" stroke-opacity="1.0" stroke-linejoin="miter"><path d="M 259.4825,267.0955 l -0.4945,-0.1607 l 0.3056,-0.9406 l 0.1889,1.1012 l -0.4945,-0.1607 l -0.3056,0.9406 Z"/></g><g fill="rgb(0,0,0)" stroke="rgb(0,0,0)" stroke-linecap="butt" stroke-width="1.9779455986164969" stroke-miterlimit="10.0" fill-opacity="0.0" stroke-opacity="1.0" stroke-linejoin="miter"><path d="M 429.3826,151.2274 l -98.4353,98.4353 "/></g><g fill="rgb(0,0,0)" stroke="rgb(0,0,0)" stroke-linecap="butt" stroke-width="0.0" stroke-miterlimit="10.0" fill-opacity="1.0" stroke-opacity="1.0" stroke-linejoin="miter"></g><g fill="rgb(0,0,0)" stroke="rgb(0,0,0)" stroke-linecap="butt" stroke-width="0.0" stroke-miterlimit="10.0" fill-opacity="1.0" stroke-opacity="1.0" stroke-linejoin="miter"></g><g fill="rgb(0,0,0)" stroke="rgb(0,0,0)" stroke-linecap="butt" stroke-width="0.0" stroke-miterlimit="10.0" fill-opacity="1.0" stroke-opacity="1.0" stroke-linejoin="miter"><path d="M 318.7094,261.9006 l 18.9671,-9.6642 l -7.0969,-2.2060 l -2.2060,-7.0969 Z"/></g><g fill="rgb(0,0,0)" stroke="rgb(0,0,0)" stroke-linecap="butt" stroke-width="0.0" stroke-miterlimit="10.0" fill-opacity="1.0" stroke-opacity="1.0" stroke-linejoin="miter"><path d="M 330.5796,250.0303 l 0.3676,-0.3676 l 0.6993,0.6993 l -1.0670,-0.3317 l 0.3676,-0.3676 l -0.6993,-0.6993 Z"/></g><g fill="rgb(0,0,0)" stroke="rgb(0,0,0)" stroke-linecap="butt" stroke-width="1.9779455986164969" stroke-miterlimit="10.0" fill-opacity="0.0" stroke-opacity="1.0" stroke-linejoin="miter"><path d="M 181.2906,70.6174 l -98.4353,98.4353 "/></g><g fill="rgb(0,0,0)" stroke="rgb(0,0,0)" stroke-linecap="butt" stroke-width="0.0" stroke-miterlimit="10.0" fill-opacity="1.0" stroke-opacity="1.0" stroke-linejoin="miter"></g><g fill="rgb(0,0,0)" stroke="rgb(0,0,0)" stroke-linecap="butt" stroke-width="0.0" stroke-miterlimit="10.0" fill-opacity="1.0" stroke-opacity="1.0" stroke-linejoin="miter"></g><g fill="rgb(0,0,0)" stroke="rgb(0,0,0)" stroke-linecap="butt" stroke-width="0.0" stroke-miterlimit="10.0" fill-opacity="1.0" stroke-opacity="1.0" stroke-linejoin="miter"><path d="M 70.6174,181.2906 l 18.9671,-9.6642 l -7.0969,-2.2060 l -2.2060,-7.0969 Z"/></g><g fill="rgb(0,0,0)" stroke="rgb(0,0,0)" stroke-linecap="butt" stroke-width="0.0" stroke-miterlimit="10.0" fill-opacity="1.0" stroke-opacity="1.0" stroke-linejoin="miter"><path d="M 82.4877,169.4204 l 0.3676,-0.3676 l 0.6993,0.6993 l -1.0670,-0.3317 l 0.3676,-0.3676 l -0.6993,-0.6993 Z"/></g><g fill="rgb(0,0,0)" stroke="rgb(0,0,0)" stroke-linecap="butt" stroke-width="1.9779455986164969" stroke-miterlimit="10.0" fill-opacity="0.0" stroke-opacity="1.0" stroke-linejoin="miter"><path d="M 224.5521,60.2350 l 182.0002,59.1355 "/></g><g fill="rgb(0,0,0)" stroke="rgb(0,0,0)" stroke-linecap="butt" stroke-width="0.0" stroke-miterlimit="10.0" fill-opacity="1.0" stroke-opacity="1.0" stroke-linejoin="miter"></g><g fill="rgb(0,0,0)" stroke="rgb(0,0,0)" stroke-linecap="butt" stroke-width="0.0" stroke-miterlimit="10.0" fill-opacity="1.0" stroke-opacity="1.0" stroke-linejoin="miter"></g><g fill="rgb(0,0,0)" stroke="rgb(0,0,0)" stroke-linecap="butt" stroke-width="0.0" stroke-miterlimit="10.0" fill-opacity="1.0" stroke-opacity="1.0" stroke-linejoin="miter"><path d="M 423.0122,124.7187 l -17.2218,-12.5124 l 1.2563,7.3249 l -5.3218,5.1875 Z"/></g><g fill="rgb(0,0,0)" stroke="rgb(0,0,0)" stroke-linecap="butt" stroke-width="0.0" stroke-miterlimit="10.0" fill-opacity="1.0" stroke-opacity="1.0" stroke-linejoin="miter"><path d="M 407.0468,119.5312 l -0.4945,-0.1607 l 0.3056,-0.9406 l 0.1889,1.1012 l -0.4945,-0.1607 l -0.3056,0.9406 Z"/></g><g fill="rgb(0,0,0)" stroke="rgb(0,0,0)" stroke-linecap="butt" stroke-width="1.9779455986164969" stroke-miterlimit="10.0" fill-opacity="0.0" stroke-opacity="1.0" stroke-linejoin="miter"><path d="M 300.2638,410.7758 l 0.0000,-87.0367 "/></g><g fill="rgb(0,0,0)" stroke="rgb(0,0,0)" stroke-linecap="butt" stroke-width="0.0" stroke-miterlimit="10.0" fill-opacity="1.0" stroke-opacity="1.0" stroke-linejoin="miter"></g><g fill="rgb(0,0,0)" stroke="rgb(0,0,0)" stroke-linecap="butt" stroke-width="0.0" stroke-miterlimit="10.0" fill-opacity="1.0" stroke-opacity="1.0" stroke-linejoin="miter"></g><g fill="rgb(0,0,0)" stroke="rgb(0,0,0)" stroke-linecap="butt" stroke-width="0.0" stroke-miterlimit="10.0" fill-opacity="1.0" stroke-opacity="1.0" stroke-linejoin="miter"><path d="M 300.2638,306.4321 l -6.5781,20.2454 l 6.5781,-3.4583 l 6.5781,3.4583 Z"/></g><g fill="rgb(0,0,0)" stroke="rgb(0,0,0)" stroke-linecap="butt" stroke-width="0.0" stroke-miterlimit="10.0" fill-opacity="1.0" stroke-opacity="1.0" stroke-linejoin="miter"><path d="M 300.2638,323.2192 l -0.0000,0.5199 l -0.9890,-0.0000 l 0.9890,-0.5199 l -0.0000,0.5199 l 0.9890,0.0000 Z"/></g><g fill="rgb(0,0,0)" stroke="rgb(0,0,0)" stroke-linecap="butt" stroke-width="1.9779455986164969" stroke-miterlimit="10.0" fill-opacity="0.0" stroke-opacity="1.0" stroke-linejoin="miter"><path d="M 52.1719,330.1658 l 0.0000,-87.0367 "/></g><g fill="rgb(0,0,0)" stroke="rgb(0,0,0)" stroke-linecap="butt" stroke-width="0.0" stroke-miterlimit="10.0" fill-opacity="1.0" stroke-opacity="1.0" stroke-linejoin="miter"></g><g fill="rgb(0,0,0)" stroke="rgb(0,0,0)" stroke-linecap="butt" stroke-width="0.0" stroke-miterlimit="10.0" fill-opacity="1.0" stroke-opacity="1.0" stroke-linejoin="miter"></g><g fill="rgb(0,0,0)" stroke="rgb(0,0,0)" stroke-linecap="butt" stroke-width="0.0" stroke-miterlimit="10.0" fill-opacity="1.0" stroke-opacity="1.0" stroke-linejoin="miter"><path d="M 52.1719,225.8221 l -6.5781,20.2454 l 6.5781,-3.4583 l 6.5781,3.4583 Z"/></g><g fill="rgb(0,0,0)" stroke="rgb(0,0,0)" stroke-linecap="butt" stroke-width="0.0" stroke-miterlimit="10.0" fill-opacity="1.0" stroke-opacity="1.0" stroke-linejoin="miter"><path d="M 52.1719,242.6092 l -0.0000,0.5199 l -0.9890,-0.0000 l 0.9890,-0.5199 l -0.0000,0.5199 l 0.9890,0.0000 Z"/></g><g fill="rgb(0,0,0)" stroke="rgb(0,0,0)" stroke-linecap="butt" stroke-width="1.9779455986164969" stroke-miterlimit="10.0" fill-opacity="0.0" stroke-opacity="1.0" stroke-linejoin="miter"><path d="M 447.8281,263.2115 l 0.0000,-87.0367 "/></g><g fill="rgb(0,0,0)" stroke="rgb(0,0,0)" stroke-linecap="butt" stroke-width="0.0" stroke-miterlimit="10.0" fill-opacity="1.0" stroke-opacity="1.0" stroke-linejoin="miter"></g><g fill="rgb(0,0,0)" stroke="rgb(0,0,0)" stroke-linecap="butt" stroke-width="0.0" stroke-miterlimit="10.0" fill-opacity="1.0" stroke-opacity="1.0" stroke-linejoin="miter"></g><g fill="rgb(0,0,0)" stroke="rgb(0,0,0)" stroke-linecap="butt" stroke-width="0.0" stroke-miterlimit="10.0" fill-opacity="1.0" stroke-opacity="1.0" stroke-linejoin="miter"><path d="M 447.8281,158.8678 l -6.5781,20.2454 l 6.5781,-3.4583 l 6.5781,3.4583 Z"/></g><g fill="rgb(0,0,0)" stroke="rgb(0,0,0)" stroke-linecap="butt" stroke-width="0.0" stroke-miterlimit="10.0" fill-opacity="1.0" stroke-opacity="1.0" stroke-linejoin="miter"><path d="M 447.8281,175.6548 l -0.0000,0.5199 l -0.9890,-0.0000 l 0.9890,-0.5199 l -0.0000,0.5199 l 0.9890,0.0000 Z"/></g><g fill="rgb(0,0,0)" stroke="rgb(0,0,0)" stroke-linecap="butt" stroke-width="1.9779455986164969" stroke-miterlimit="10.0" fill-opacity="0.0" stroke-opacity="1.0" stroke-linejoin="miter"><path d="M 199.7362,182.6015 l 0.0000,-87.0367 "/></g><g fill="rgb(0,0,0)" stroke="rgb(0,0,0)" stroke-linecap="butt" stroke-width="0.0" stroke-miterlimit="10.0" fill-opacity="1.0" stroke-opacity="1.0" stroke-linejoin="miter"></g><g fill="rgb(0,0,0)" stroke="rgb(0,0,0)" stroke-linecap="butt" stroke-width="0.0" stroke-miterlimit="10.0" fill-opacity="1.0" stroke-opacity="1.0" stroke-linejoin="miter"></g><g fill="rgb(0,0,0)" stroke="rgb(0,0,0)" stroke-linecap="butt" stroke-width="0.0" stroke-miterlimit="10.0" fill-opacity="1.0" stroke-opacity="1.0" stroke-linejoin="miter"><path d="M 199.7362,78.2578 l -6.5781,20.2454 l 6.5781,-3.4583 l 6.5781,3.4583 Z"/></g><g fill="rgb(0,0,0)" stroke="rgb(0,0,0)" stroke-linecap="butt" stroke-width="0.0" stroke-miterlimit="10.0" fill-opacity="1.0" stroke-opacity="1.0" stroke-linejoin="miter"><path d="M 199.7362,95.0449 l -0.0000,0.5199 l -0.9890,-0.0000 l 0.9890,-0.5199 l -0.0000,0.5199 l 0.9890,0.0000 Z"/></g></svg>